<?xml version="1.0" encoding="utf-8"?>
<!-- Generator: Adobe Illustrator 26.2.1, SVG Export Plug-In . SVG Version: 6.00 Build 0)  -->
<svg version="1.1" id="Calque_1" xmlns="http://www.w3.org/2000/svg" xmlns:xlink="http://www.w3.org/1999/xlink" x="0px" y="0px"
	 viewBox="0 0 423 166.3" style="enable-background:new 0 0 423 166.3;" xml:space="preserve">
<style type="text/css">
	.st0{fill-rule:evenodd;clip-rule:evenodd;fill:#FF7A14;}
	.st1{fill:#FF7A14;stroke:#FF7A14;stroke-width:0.9947;}
</style>
<g>
	<path class="st0" d="M318.8,136.1c3.3-7.5,5-15.6,5-24.4c0-15.5-5.4-29.1-16-40.2c-0.2-0.2-0.3-0.3-0.5-0.5
		c1.5-20.2,7.3-36.8,17.5-49.8c10.7-13.9,23.9-21,39.4-21c15.5,0,28.7,7.1,39.4,21c12,15.3,17.9,36.1,17.9,62
		c0,25.9-5.9,46.6-17.9,61.9c-10.7,13.9-23.9,21-39.3,21c-15.5,0-28.7-7.1-39.5-21l0,0C322.6,142.4,320.6,139.3,318.8,136.1z
		 M208.3,87.6c-3.8,8.5-5.8,17-5.8,25.5c0,10.5,2.7,20.1,7.8,28.7c-2.2,3.7-5,7.2-8.3,10.3c-9.9,9.3-22.6,13.9-37.8,13.9
		c-19.4,0-34.1-7.2-43.7-21.7l0,0c-4-6.2-6.5-14.6-7.5-25.1l-0.2-2.2h26.8v0.6c0,0.8,0.1,1.5,0.3,2.3c1.7,6.6,4.1,11.5,8.1,15
		c4.3,3.6,10,5.5,17.2,5.5c7.2,0,13-2.4,17.6-7c4.6-4.8,7-10.9,7-18.4c0-10-3.5-16.8-10.3-20.8c-3.9-2.3-10.3-3.6-19.4-3.6h-2V66.5
		h2c4.9,0,9-0.3,12.2-0.8c3.3-0.5,5.5-1.3,6.9-2.2l0,0c5.5-3.5,8.3-9.1,8.3-17.2c0-6.2-2-11.1-6.1-14.9l0,0l0,0
		c-4-3.9-9.2-5.8-15.8-5.8c-6.2,0-10.8,1.5-13.9,4.3c-3,2.9-5.5,7.9-7.1,15.4l-0.3,1.6h-27.5l0.4-2.3c2.5-15,7.6-26.3,15.7-33.5
		C140.7,3.5,151.9,0,165.8,0c14.2,0,25.9,4.2,35,12.7c9.1,8.5,13.6,19.4,13.6,32.6c0,14-5.2,25.1-15.5,33.4
		C202.6,81.3,205.7,84.2,208.3,87.6z M385.5,124.8L385.5,124.8c-5.9,10.9-13,15.9-21.3,15.9c-8.3,0-15.5-5-21.3-15.9
		c-5.8-11.1-8.8-25.3-8.8-42.4c0-16.5,3-30.1,8.9-40.9l0,0c5.9-10.9,13-15.8,21.2-15.8c8.3,0,15.4,4.9,21.3,15.8
		c5.9,10.9,8.9,24.8,8.9,41.7C394.4,100.1,391.4,113.9,385.5,124.8z"/>
	<path class="st0" d="M300.4,14.5L280,0.2l-56.2,71.2c-10.5,14-15.9,28.5-15.9,41.6c0,14.5,5.6,27,16.7,37.5l0,0l0,0
		c11.2,10.5,24.4,15.7,39.4,15.7c15.2,0,28.2-5.4,39-16c10.8-10.7,16.3-23.6,16.3-38.6c0-14.1-4.9-27.2-14.6-37.3
		c-9.8-10.2-21.6-15.3-35.2-15.3c-0.6,0-1.3,0-2.1,0.1L300.4,14.5z M282.5,93.5c5.2,5.1,7.8,12.3,7.8,19.7c0,7-2.6,13-7.9,18.3
		c-5.2,5.1-11.4,7.7-18.7,7.7c-7.6,0-13.8-2.5-19-7.7c-5.2-5.1-7.8-11.3-7.8-18.6c0-7.3,2.6-14.4,7.8-19.5
		c5.2-5.1,11.4-7.7,18.9-7.7C271,85.8,277.2,88.3,282.5,93.5z"/>
	<path class="st1" d="M28.9,1.2V0.7h-0.5H1.5H1v0.5v164v0.5h0.5h26.8h0.5v-0.5V1.2z M138.5,118.7h0.5v-0.5v-7.4v0
		c0-16.7-4.3-31.6-13.2-41.4v0c-9-9.9-21.2-14.7-36.4-14.7c-15,0-27.3,5-36.6,15.1l0,0l0,0l0,0l0,0l0,0c-9.2,10.2-13.6,25-13.6,41.1
		c0,16.3,4.6,29.6,14.1,39.7l0,0l0,0l0,0c9.5,10,22,15,37.4,15c5.3,0,10.3-0.6,14.9-1.7c4.6-1.1,9-2.9,13-5.4l0,0l0,0l0,0l0,0v0
		c4-2.5,7.7-5.6,11.2-9.4l0,0l0,0l0,0l0,0c3.5-3.8,6.7-8.3,9.7-13.5l1-1.8l0.3-0.4l-0.4-0.2l-22.7-12.7l-0.4-0.2l-0.3,0.4l-1,1.6
		c-4.6,7.2-8.6,11.9-11.9,14.4c-3.2,2.3-7.4,3.6-12.6,3.6c-6.7,0-12-2.2-16.2-6.4c-3.7-3.8-6-8.8-6.9-15.2H138.5z M105.9,139.1
		L105.9,139.1c3.7-2.7,7.8-7.7,12.4-14.8l18.4,10.3c-0.3,0.4-0.5,0.8-0.8,1.3c-2.7,4.3-5.4,8.1-8.4,11.3c-3.3,3.6-6.8,6.5-10.6,8.8
		c-3.7,2.3-7.8,3.9-12.1,5c-4.4,1.1-9.1,1.6-14.2,1.6c-14.6,0-26.4-4.7-35.2-14.1c-8.8-9.4-13.3-22-13.3-37.6
		c0-15.6,4.3-29.6,12.9-39.1c8.6-9.4,20.1-14.2,34.4-14.2c14.4,0,25.8,4.6,34.2,13.7c8.3,9.1,12.5,23.2,12.5,39.4c0,0,0,0,0,0
		l-0.1,4.9H65.6H65l0,0.5c0.1,0.7,0.1,1.4,0.2,2c0.9,7.3,3.5,13.2,7.9,17.7l0,0c4.8,4.8,10.9,7.3,18.3,7.3
		C97.2,143.2,102,141.9,105.9,139.1z M82.9,81.5L82.9,81.5L82.9,81.5c2.2-0.8,4.5-1.2,7-1.2c5.7,0,10.1,1.4,13.4,4
		c2.7,2.1,4.8,5.2,6.3,9.3H70.5c0.5-1.4,1.2-2.6,1.9-3.8c1.3-2,2.8-3.7,4.5-5.1l0,0l0,0c0,0,0,0,0,0C78.8,83.3,80.7,82.2,82.9,81.5
		L82.7,81L82.9,81.5L82.9,81.5L82.9,81.5z M66.6,95.9l-0.2,0.6h0.6H113h0.6l-0.2-0.6c-0.2-0.7-0.4-1.4-0.6-2
		c-1.8-5.5-4.6-9.7-8.4-12.5c-3.8-2.8-8.7-4.2-14.5-4.2c-2.8,0-5.5,0.4-8,1.3c-2.5,0.8-4.8,2.1-6.8,3.7c-2,1.6-3.7,3.5-5.2,5.8
		c-1.1,1.7-2,3.6-2.7,5.7C67,94.6,66.8,95.3,66.6,95.9z M4,162.8V3.7h21.9v159.1H4z"/>
</g>
</svg>
